<mxfile host="65bd71144e" pages="1">
    <diagram id="4aA8682Oxr7YlsX3xrEW" name="Page-1">
        <mxGraphModel dx="808" dy="574" grid="1" gridSize="10" guides="1" tooltips="1" connect="1" arrows="1" fold="1" page="1" pageScale="1" pageWidth="827" pageHeight="1169" math="0" shadow="0">
            <root>
                <mxCell id="0"/>
                <mxCell id="1" parent="0"/>
                <mxCell id="asYjwT--wiLLLTKxJUm1-16" value="" style="endArrow=none;html=1;strokeColor=#767171;fontColor=#767171;fontSize=27;spacing=7;strokeWidth=2;" parent="1" edge="1">
                    <mxGeometry width="50" height="50" relative="1" as="geometry">
                        <mxPoint x="354.33000000000004" y="79.5" as="sourcePoint"/>
                        <mxPoint x="394.33000000000004" y="79.5" as="targetPoint"/>
                    </mxGeometry>
                </mxCell>
                <mxCell id="asYjwT--wiLLLTKxJUm1-17" value="" style="endArrow=none;html=1;strokeColor=#23A8D4;fontColor=#767171;fontSize=27;spacing=7;strokeWidth=2;" parent="1" edge="1">
                    <mxGeometry width="50" height="50" relative="1" as="geometry">
                        <mxPoint x="354.33000000000004" y="120" as="sourcePoint"/>
                        <mxPoint x="394.33000000000004" y="120" as="targetPoint"/>
                    </mxGeometry>
                </mxCell>
                <mxCell id="asYjwT--wiLLLTKxJUm1-18" value="&lt;font style=&quot;font-size: 12px&quot;&gt;Preexisting resources&lt;/font&gt;" style="text;html=1;resizable=0;autosize=1;align=center;verticalAlign=middle;points=[];fillColor=none;strokeColor=none;rounded=0;fontSize=12;fontColor=#767171;fontStyle=1" parent="1" vertex="1">
                    <mxGeometry x="403.33000000000004" y="65" width="130" height="20" as="geometry"/>
                </mxCell>
                <mxCell id="asYjwT--wiLLLTKxJUm1-19" value="&lt;font style=&quot;font-size: 12px&quot;&gt;Module resources&lt;/font&gt;" style="text;html=1;resizable=0;autosize=1;align=center;verticalAlign=middle;points=[];fillColor=none;strokeColor=none;rounded=0;fontSize=12;fontColor=#23A8D4;fontStyle=1" parent="1" vertex="1">
                    <mxGeometry x="401.33000000000004" y="106" width="110" height="20" as="geometry"/>
                </mxCell>
                <mxCell id="2" value="" style="points=[[0,0,0],[0.25,0,0],[0.5,0,0],[0.75,0,0],[1,0,0],[0,1,0],[0.25,1,0],[0.5,1,0],[0.75,1,0],[1,1,0],[0,0.25,0],[0,0.5,0],[0,0.75,0],[1,0.25,0],[1,0.5,0],[1,0.75,0]];points=[[0,0,0],[0.25,0,0],[0.5,0,0],[0.75,0,0],[1,0,0],[0,1,0],[0.25,1,0],[0.5,1,0],[0.75,1,0],[1,1,0],[0,0.25,0],[0,0.5,0],[0,0.75,0],[1,0.25,0],[1,0.5,0],[1,0.75,0]];outlineConnect=0;fontColor=#232F3E;gradientDirection=north;strokeColor=#ffffff;dashed=0;verticalLabelPosition=bottom;verticalAlign=top;align=center;html=1;fontSize=12;fontStyle=0;aspect=fixed;shape=mxgraph.aws4.resourceIcon;resIcon=mxgraph.aws4.cloudwatch_2;fillColor=#23A8D4;" parent="1" vertex="1">
                    <mxGeometry x="276.33000000000004" y="80" width="40" height="40" as="geometry"/>
                </mxCell>
                <mxCell id="3" value="" style="outlineConnect=0;fontColor=#232F3E;gradientColor=none;strokeColor=none;dashed=0;verticalLabelPosition=bottom;verticalAlign=top;align=center;html=1;fontSize=12;fontStyle=0;aspect=fixed;pointerEvents=1;shape=mxgraph.aws4.logs;fillColor=#23A8D4;" parent="1" vertex="1">
                    <mxGeometry x="276.33000000000004" y="140" width="40.34" height="30" as="geometry"/>
                </mxCell>
                <mxCell id="10" style="edgeStyle=none;html=1;fontColor=#23A8D4;strokeColor=#23A8D4;" edge="1" parent="1" source="4" target="3">
                    <mxGeometry relative="1" as="geometry"/>
                </mxCell>
                <mxCell id="4" value="encrypted cloudwatch loggroup" style="text;html=1;strokeColor=none;fillColor=none;align=center;verticalAlign=middle;whiteSpace=wrap;rounded=0;fontColor=#23A8D4;fontStyle=1" parent="1" vertex="1">
                    <mxGeometry x="316.67" y="146" width="113.33" height="20" as="geometry"/>
                </mxCell>
                <mxCell id="5" value="" style="sketch=0;outlineConnect=0;fontColor=#232F3E;gradientColor=none;fillColor=#23A8D4;strokeColor=none;dashed=0;verticalLabelPosition=bottom;verticalAlign=top;align=center;html=1;fontSize=12;fontStyle=0;aspect=fixed;pointerEvents=1;shape=mxgraph.aws4.policy;" vertex="1" parent="1">
                    <mxGeometry x="190.97000000000003" y="210" width="43.07" height="37" as="geometry"/>
                </mxCell>
                <mxCell id="6" value="" style="outlineConnect=0;dashed=0;verticalLabelPosition=bottom;verticalAlign=top;align=center;html=1;shape=mxgraph.aws3.cloud_2;fillColor=#767171;gradientColor=none;fontColor=#23A8D4;aspect=fixed;" vertex="1" parent="1">
                    <mxGeometry x="75" y="135" width="40" height="40" as="geometry"/>
                </mxCell>
                <mxCell id="7" value="" style="endArrow=none;html=1;strokeColor=#767171;fontColor=#767171;fontSize=27;spacing=7;strokeWidth=2;startArrow=none;" edge="1" parent="1" source="14">
                    <mxGeometry width="50" height="50" relative="1" as="geometry">
                        <mxPoint x="364.3299999999999" y="89.5" as="sourcePoint"/>
                        <mxPoint x="180" y="155" as="targetPoint"/>
                    </mxGeometry>
                </mxCell>
                <mxCell id="8" value="&lt;font style=&quot;font-size: 12px&quot;&gt;logs&lt;/font&gt;" style="text;html=1;resizable=0;autosize=1;align=center;verticalAlign=middle;points=[];fillColor=none;strokeColor=none;rounded=0;fontSize=12;fontColor=#767171;fontStyle=1" vertex="1" parent="1">
                    <mxGeometry x="140.00000000000003" y="126" width="40" height="20" as="geometry"/>
                </mxCell>
                <mxCell id="9" value="" style="endArrow=none;html=1;strokeColor=#23A8D4;fontColor=#767171;fontSize=27;spacing=7;strokeWidth=2;" edge="1" parent="1" source="5" target="14">
                    <mxGeometry width="50" height="50" relative="1" as="geometry">
                        <mxPoint x="364.3299999999999" y="130" as="sourcePoint"/>
                        <mxPoint x="260" y="155" as="targetPoint"/>
                    </mxGeometry>
                </mxCell>
                <mxCell id="11" value="&lt;font style=&quot;font-size: 12px&quot;&gt;AWS service&lt;/font&gt;" style="text;html=1;resizable=0;autosize=1;align=center;verticalAlign=middle;points=[];fillColor=none;strokeColor=none;rounded=0;fontSize=12;fontColor=#767171;fontStyle=1" vertex="1" parent="1">
                    <mxGeometry x="50.00000000000006" y="190" width="90" height="20" as="geometry"/>
                </mxCell>
                <mxCell id="15" value="" style="endArrow=none;html=1;strokeColor=#767171;fontColor=#767171;fontSize=27;spacing=7;strokeWidth=2;" edge="1" parent="1" source="6" target="14">
                    <mxGeometry width="50" height="50" relative="1" as="geometry">
                        <mxPoint x="140" y="155" as="sourcePoint"/>
                        <mxPoint x="180" y="155" as="targetPoint"/>
                    </mxGeometry>
                </mxCell>
                <mxCell id="14" value="" style="outlineConnect=0;fontColor=#232F3E;gradientColor=none;fillColor=#23A8D4;strokeColor=none;dashed=0;verticalLabelPosition=bottom;verticalAlign=top;align=center;html=1;fontSize=12;fontStyle=0;aspect=fixed;pointerEvents=1;shape=mxgraph.aws4.role;shadow=0;labelBackgroundColor=none;" vertex="1" parent="1">
                    <mxGeometry x="195" y="145" width="35" height="20" as="geometry"/>
                </mxCell>
                <mxCell id="16" value="role" style="text;html=1;strokeColor=none;fillColor=none;align=center;verticalAlign=middle;whiteSpace=wrap;rounded=0;fontColor=#23A8D4;fontStyle=1" vertex="1" parent="1">
                    <mxGeometry x="188.33" y="115" width="48.34" height="20" as="geometry"/>
                </mxCell>
                <mxCell id="18" value="policy enabling services to assume writing role" style="text;html=1;strokeColor=none;fillColor=none;align=center;verticalAlign=middle;whiteSpace=wrap;rounded=0;fontColor=#23A8D4;fontStyle=1" vertex="1" parent="1">
                    <mxGeometry x="240" y="218.5" width="160" height="20" as="geometry"/>
                </mxCell>
                <mxCell id="19" value="" style="endArrow=none;html=1;strokeColor=#23A8D4;fontColor=#767171;fontSize=27;spacing=7;strokeWidth=2;" edge="1" parent="1" source="14" target="3">
                    <mxGeometry width="50" height="50" relative="1" as="geometry">
                        <mxPoint x="364.3299999999999" y="130" as="sourcePoint"/>
                        <mxPoint x="404.3299999999999" y="130" as="targetPoint"/>
                    </mxGeometry>
                </mxCell>
            </root>
        </mxGraphModel>
    </diagram>
</mxfile>